<svg xmlns="http://www.w3.org/2000/svg" width="512" height="512" viewBox="0 0 180 180" role="img" aria-label="Soundcheck">
  <defs>
    <linearGradient id="sc" gradientUnits="userSpaceOnUse" x1="18" y1="96" x2="162" y2="84">
      <stop offset="0" stop-color="#FF6A1A"/>
      <stop offset="0.52" stop-color="#FBA621"/>
      <stop offset="1" stop-color="#F2D62B"/>
    </linearGradient>
  </defs>
  <rect width="180" height="180" rx="40" fill="#0A0A0A"/>
  <g transform="translate(90,90) scale(0.74) translate(-90,-90)">
    <path d="M 30 92 C 32 56 64 38 98 38 C 128 38 150 52 152 78" fill="none" stroke="url(#sc)" stroke-width="16" stroke-linecap="round" stroke-linejoin="round"/>
    <path d="M 150 88 C 148 124 116 142 82 142 C 52 142 30 128 28 102" fill="none" stroke="url(#sc)" stroke-width="16" stroke-linecap="round" stroke-linejoin="round"/>
    <polygon points="150,75 172,88 150,101" fill="url(#sc)"/>
    <polygon points="30,105 8,92 30,79" fill="url(#sc)"/>
    <g fill="url(#sc)">
      <rect x="55.5" y="72" width="5" height="36" rx="2.5"/>
      <rect x="63.5" y="62" width="5" height="56" rx="2.5"/>
      <rect x="71.5" y="76" width="5" height="28" rx="2.5"/>
      <rect x="79.5" y="57" width="5" height="66" rx="2.5"/>
      <rect x="87.5" y="65" width="5" height="50" rx="2.5"/>
      <rect x="95.5" y="54" width="5" height="72" rx="2.5"/>
      <rect x="103.5" y="74" width="5" height="32" rx="2.5"/>
      <rect x="111.5" y="63" width="5" height="54" rx="2.5"/>
      <rect x="119.5" y="70" width="5" height="40" rx="2.5"/>
    </g>
  </g>
</svg>
